<?xml version="1.0" encoding="iso-8859-1"?>
<!-- Generator: Adobe Illustrator 19.0.0, SVG Export Plug-In . SVG Version: 6.00 Build 0)  -->
<svg version="1.1" id="Capa_1" xmlns="http://www.w3.org/2000/svg" xmlns:xlink="http://www.w3.org/1999/xlink" x="0px" y="0px"
	 viewBox="0 0 512 512" style="enable-background:new 0 0 512 512;" xml:space="preserve">
<g>
	<path style="fill:#FFC66C;" d="M278.35,284.001c-34.124,34.124-18.922,75.69-18.922,75.69s41.566,15.202,75.69-18.922
		s18.971-75.289,18.924-75.691C354.041,265.078,312.474,249.878,278.35,284.001z"/>
	<path style="fill:#FFC66C;" d="M157.959,265.078c-0.048,0.402-15.2,41.568,18.924,75.691s75.69,18.922,75.69,18.922
		s15.202-41.566-18.922-75.69S157.959,265.078,157.959,265.078z"/>
	<path style="fill:#FFC66C;" d="M278.35,190.929c-34.124,34.124-18.922,75.69-18.922,75.69s41.566,15.202,75.69-18.922
		s18.971-75.289,18.924-75.691C354.041,172.006,312.474,156.806,278.35,190.929z"/>
	<path style="fill:#FFC66C;" d="M215.912,141.817c0,48.258,40.141,66.9,40.141,66.9s40.141-18.642,40.141-66.9
		s-39.823-66.652-40.141-66.903C256.053,74.914,215.912,93.559,215.912,141.817z"/>
	<path style="fill:#FFC66C;" d="M157.959,172.006c-0.048,0.402-15.2,41.568,18.924,75.691s75.69,18.922,75.69,18.922
		s15.202-41.566-18.922-75.69S157.959,172.006,157.959,172.006z"/>
</g>
<g>
	<circle style="fill:#FF5D5D;" cx="425.95" cy="78.05" r="28"/>
	<circle style="fill:#FF5D5D;" cx="86.05" cy="433.95" r="28"/>
</g>
<path d="M148.361,262.268c-2.606,8.107-13.812,50.311,21.45,85.573c20.406,20.406,43.054,25.274,60.022,25.274
	c6.282,0,11.773-0.669,16.096-1.463v65.433c0,5.522,4.477,10,10,10c5.523,0,10-4.478,10-10v-65.458
	c4.343,0.804,9.888,1.487,16.238,1.487c16.967,0,39.618-4.87,60.022-25.274c35.262-35.263,24.056-77.466,21.45-85.573
	c-0.883-3.016-3.15-5.479-6.163-6.581c-0.608-0.222-5.537-1.966-13.193-3.086c32.708-34.803,21.909-75.464,19.356-83.405
	c-0.883-3.017-3.15-5.48-6.163-6.582c-1.404-0.514-25.885-9.146-53.777,0.561c1.575-6.461,2.496-13.564,2.496-21.358
	c0-49.867-37.763-71.785-45.341-75.676c-2.757-1.51-6.104-1.648-9.012-0.296c-1.875,0.871-45.929,21.954-45.929,75.972
	c0,7.81,0.925,14.928,2.506,21.399c-27.941-9.772-52.488-1.117-53.894-0.602c-3.013,1.102-5.28,3.565-6.163,6.582
	c-2.553,7.941-13.352,48.602,19.356,83.405c-7.656,1.12-12.585,2.864-13.193,3.086C151.512,256.788,149.244,259.252,148.361,262.268
	z M328.046,333.698c-23.078,23.079-49.823,20.252-60.487,17.886c-2.325-10.638-5.136-37.514,17.862-60.512
	c7.358-7.358,15.087-12.075,22.551-15.021c1.424-0.458,2.857-0.962,4.298-1.518c14.226-4.44,26.983-2.82,33.601-1.357
	C348.388,284.642,350.786,310.959,328.046,333.698z M345.871,180.105c2.517,11.465,4.915,37.782-17.825,60.521
	c-7.338,7.339-15.046,12.051-22.491,14.999c-1.451,0.466-2.912,0.981-4.382,1.548c-14.255,4.443-27.033,2.802-33.63,1.334
	c-0.74-3.333-1.524-8.228-1.553-14.085c0-0.085,0.001-0.17,0.001-0.255c-0.014-11.74,3.023-27.276,15.457-41.866
	c1.473-1.464,2.954-3.039,4.422-4.732C308.817,174.998,335.249,177.755,345.871,180.105z M256.003,86.418
	c9.886,6.326,30.191,23.239,30.191,55.398c0,19.11-7.171,32.822-14.963,42.09c-1.62,1.622-3.136,3.26-4.565,4.906
	c-3.998,3.887-7.827,6.658-10.596,8.422c-3.134-2.01-7.65-5.323-12.237-10.112c-0.468-0.513-0.941-1.026-1.427-1.537
	c-8.355-9.281-16.494-23.518-16.494-43.769C225.912,109.219,246.772,92.306,256.003,86.418z M166.125,180.125
	c10.679-2.322,37.498-5.08,60.454,17.876c0.146,0.146,0.278,0.293,0.421,0.438c0.877,0.984,1.757,1.925,2.636,2.829
	c11.969,13.511,15.715,27.937,16.293,39.468v6.672c-0.222,4.539-0.859,8.354-1.468,11.096c-6.623,1.473-19.409,3.108-33.666-1.342
	c-1.445-0.557-2.882-1.064-4.309-1.523c-7.458-2.946-15.181-7.662-22.533-15.013C161.227,217.9,163.609,191.6,166.125,180.125z
	 M166.125,273.196c6.721-1.461,19.836-3.089,34.356,1.623c0.956,0.358,1.909,0.696,2.857,1.011
	c7.69,2.916,15.674,7.676,23.241,15.242c14.419,14.419,18.725,30.269,19.35,42.735v6.672c-0.222,4.539-0.859,8.354-1.468,11.097
	c-10.689,2.375-37.433,5.197-60.507-17.878C161.227,310.973,163.609,284.672,166.125,273.196z"/>
<path d="M86.052,395.948c-6.016,0-11.815,1.399-17.038,4.025C37.362,358.885,20,308.061,20,256C20,125.869,125.869,20,256,20
	c16.582,0,33.137,1.728,49.207,5.136c5.406,1.145,10.711-2.306,11.857-7.708c1.146-5.403-2.305-10.711-7.708-11.857
	C291.925,1.875,273.973,0,256,0C187.62,0,123.333,26.628,74.981,74.981C26.629,123.333,0,187.62,0,256
	c0,56.978,19.17,112.597,54.096,157.381c-3.929,6.078-6.044,13.158-6.044,20.568c0,10.15,3.953,19.692,11.13,26.87
	c7.177,7.177,16.72,11.13,26.87,11.13s19.693-3.953,26.87-11.13c7.178-7.178,11.13-16.72,11.13-26.87s-3.953-19.692-11.13-26.87
	C105.745,399.901,96.202,395.948,86.052,395.948z M98.78,446.676L98.78,446.676c-7.018,7.02-18.438,7.018-25.456,0
	c-3.4-3.399-5.272-7.92-5.272-12.728s1.872-9.328,5.272-12.728c3.509-3.51,8.118-5.264,12.728-5.264s9.219,1.755,12.728,5.264
	c3.4,3.399,5.272,7.92,5.272,12.728S102.18,443.276,98.78,446.676z"/>
<path d="M457.904,98.619c3.929-6.078,6.044-13.158,6.044-20.568c0-10.15-3.953-19.693-11.13-26.87
	c-7.177-7.178-16.72-11.13-26.87-11.13s-19.693,3.953-26.87,11.13s-11.13,16.72-11.13,26.87s3.953,19.693,11.13,26.87
	c7.177,7.178,16.72,11.13,26.87,11.13c6.017,0,11.815-1.399,17.039-4.025C474.638,153.115,492,203.939,492,256
	c0,130.131-105.869,236-236,236c-13.999,0-28.025-1.234-41.688-3.669c-5.434-0.967-10.631,2.652-11.599,8.091
	c-0.969,5.437,2.653,10.63,8.09,11.599C225.622,510.661,240.828,512,256,512c68.38,0,132.667-26.629,181.02-74.98
	S512,324.38,512,256C512,199.022,492.83,143.403,457.904,98.619z M413.221,90.779c-7.019-7.018-7.019-18.437,0-25.456
	c3.399-3.4,7.92-5.272,12.728-5.272s9.328,1.872,12.728,5.272c3.4,3.399,5.272,7.92,5.272,12.728s-1.872,9.328-5.272,12.728l0,0
	c-3.399,3.4-7.92,5.272-12.728,5.272S416.62,94.18,413.221,90.779z"/>
<path d="M168.134,475.102l-3.776,9.26l3.748-9.271c-5.123-2.068-10.949,0.403-13.019,5.523s0.403,10.949,5.523,13.02l0.309,0.122
	c1.179,0.451,2.393,0.665,3.587,0.665c4.028,0,7.835-2.438,9.359-6.415C175.841,482.847,173.292,477.077,168.134,475.102z"/>
<path d="M344.218,37.041l0.114,0.046c1.228,0.496,2.495,0.73,3.743,0.73c3.956,0,7.702-2.363,9.275-6.256
	c2.069-5.121-0.405-10.949-5.526-13.018l-0.178-0.071c-5.127-2.052-10.947,0.443-12.999,5.571S339.09,34.989,344.218,37.041z"/>
<g>
</g>
<g>
</g>
<g>
</g>
<g>
</g>
<g>
</g>
<g>
</g>
<g>
</g>
<g>
</g>
<g>
</g>
<g>
</g>
<g>
</g>
<g>
</g>
<g>
</g>
<g>
</g>
<g>
</g>
</svg>
