<svg id="Capa_1" enable-background="new 0 0 512 512" height="512" viewBox="0 0 512 512" width="512" xmlns="http://www.w3.org/2000/svg"><g><g><g><g><path d="m469.757 145.453c-28.383.541-133.456 8.742-144.863 100.032-.346 2.772 2.123 5.387 5.374 5.687 115.827 10.695 140.873-75.859 145.555-99.717.611-3.113-2.381-6.072-6.066-6.002z" fill="#b5e245"/></g><g><path d="m128.03 145.453c28.383.541 133.456 8.742 144.863 100.032.346 2.772-2.123 5.387-5.374 5.687-115.827 10.695-140.873-75.859-145.555-99.717-.612-3.113 2.38-6.072 6.066-6.002z" fill="#b5e245"/></g></g><g><path d="m301.847 9.387c-1.598-2.518-5.195-2.518-6.794 0-14.839 23.38-70.031 121.449 3.277 184.907h.241c73.307-63.459 18.115-161.528 3.276-184.907z" fill="#c6e873"/><g><g><path d="m186.217 340.915-45.905 36.606 158.138 75.714 158.138-75.714-45.905-36.606c-65.391-52.145-159.075-52.145-224.466 0z" fill="#ce9875"/><g><path d="m348.935 366.261 45.905 36.606 3.499 2.544 58.25-27.889-45.905-36.606c-60.876-48.545-146.266-51.888-210.528-10.048 51.141-10.507 106.011 1.287 148.779 35.393z" fill="#c6865c"/></g><g><g><g><g><g><g><g><g><g><g><g><g><g><g><g><g><g><g><path d="m456.828 363.397-53.951 28.358c-14.208 7.468-29.777 11.62-45.644 12.172l.696-11.507c-1.311-13.9-11.464-25.055-24.584-27.012l-60.298-7.318c-13.91-2.075-20.86-6.988-32.986-14.466-11.834-7.297-33.834-16.171-45.751-19.739-20.923-6.266-43.531-3.319-62.582 7.362l-84.99 47.655 66.595 106.201 36.328-32.223c5.818-5.161 13.929-6.867 21.333-4.487l60.827 19.551c6.697 2.633 13.875 3.621 20.988 2.892l121.093-12.425c7.543-.774 14.798-3.458 21.145-7.825l83.589-57.502c6.71-6.281 7.954-16.836 2.906-24.656-5.523-8.555-16.565-10.803-24.714-5.031z" fill="#ffddce"/></g></g></g></g></g></g></g></g></g></g></g></g></g></g></g><g fill="#ffcbbe"><path d="m47.047 378.729-.309.174.629 1.003z"/><path d="m481.542 368.43c-5.523-8.557-16.565-10.805-24.714-5.032l-38.257 20.109s-3.787 8.577-7.997 17.683c-7.828 16.932-24.403 28.403-32.707 29.255l-125.53 12.88c-7.374.757-14.815-.268-21.757-2.997l-63.056-20.268c-7.675-2.467-16.083-.699-22.114 4.651l-45.276 39.344 13.199 21.049 36.328-32.223c5.818-5.161 13.929-6.867 21.333-4.487l60.827 19.551c6.697 2.633 13.875 3.621 20.988 2.892l121.093-12.425c7.543-.774 14.798-3.458 21.145-7.825l83.589-57.502c6.71-6.28 7.954-16.835 2.906-24.655z"/></g></g></g><path d="m129.609 492.53-17.472 10.087c-6.696 3.866-15.257 1.572-19.123-5.124l-63.74-110.402c-3.866-6.696-1.572-15.257 5.124-19.123l17.472-10.087c6.696-3.866 15.257-1.572 19.123 5.124l63.74 110.402c3.866 6.696 1.571 15.257-5.124 19.123z" fill="#dd636e"/></g></g></g></g></g><path d="m487.843 364.362c-7.777-12.052-23.359-15.214-34.907-7.393l-6.082 3.197-31.495-25.115c-31.394-25.035-69.385-38.664-107.988-40.502 1.845-10.036 6.876-23.48 19.76-36.368 3.807 1.05 17.837 1.396 22.222 1.396 25.689 0 48.431-5.012 67.803-14.966 3.685-1.894 5.136-6.415 3.243-10.099-1.895-3.687-6.418-5.136-10.099-3.243-18.837 9.68-41.527 14.088-67.558 13.178 47.003-39.256 99.633-70.392 123.021-83.511-4.027 13.676-12.377 33.92-29.121 50.957-2.903 2.954-2.861 7.703.093 10.606 2.952 2.9 7.7 2.863 10.606-.093 25.036-25.475 33.405-57.096 35.841-69.508 1.567-7.984-5.261-15.053-13.568-14.946-73.529 1.403-142.945 32.844-152.162 106.601-.091.725-.104 1.448-.061 2.166-4.552 4.437-8.327 8.951-11.449 13.433v-62.396c32.473-29.562 42.72-68.576 34.699-112.301-6.742-36.746-24.947-68.251-32.462-80.089 0-.001 0-.001 0-.001-4.415-6.957-14.792-7.353-19.458 0-7.515 11.839-25.72 43.343-32.462 80.09-8.001 43.615 2.155 82.667 34.682 112.288v61.14c-2.94-4.064-6.424-8.145-10.547-12.164.043-.718.03-1.441-.061-2.166-9.203-73.645-78.661-105.2-152.162-106.602-8.384-.081-15.127 7.006-13.568 14.945 11.694 59.595 56.77 106.696 133.53 106.696 4.411 0 18.733-.368 22.522-1.413 12.909 12.899 17.949 26.299 19.79 36.322-29.699 1.239-59.242 9.466-85.917 24.871-3.024-1.075-5.772-1.986-8.069-2.673-22.424-6.717-47.354-3.797-68.402 8.005l-53.891 30.217c-6.705-6.825-17.359-8.557-26.049-3.537l-17.473 10.087c-10.265 5.928-13.795 19.102-7.868 29.368l63.744 110.404c5.93 10.27 19.057 13.821 29.368 7.869l17.472-10.087c10.101-5.833 13.66-18.677 8.125-28.867l13.153-11.667c3.818-3.386 9.206-4.519 14.061-2.956l60.61 19.481c7.551 2.926 15.913 4.136 24.266 3.282l121.092-12.426c8.76-.898 17.276-4.047 24.631-9.106 89.026-61.278 83.685-57.477 84.463-58.206 9.296-8.699 11.051-23.402 4.082-34.198zm-41.216-209.756c-26.612 15.491-70.695 42.947-111.197 76.419 15.721-55.839 74.075-71.92 111.197-76.419zm-184.245 76.441c-40.455-33.437-84.487-60.872-111.116-76.378 50.014 6.204 97.445 27.624 111.116 76.378zm-130.385-70.123c23.377 13.111 76.032 44.258 123.053 83.531-86.311 3.014-114.313-53.564-123.053-83.531zm193.89-72.761c6.429 35.043-.287 64.567-19.945 88.02v-144.476c7.424 14.46 15.916 34.493 19.945 56.456zm-54.873 0c4.027-21.949 12.509-41.969 19.929-56.425v144.426c-19.646-23.45-26.357-52.967-19.929-88.001zm134.993 258.617 26.346 21.009-32.966 17.328c-10.812 5.685-22.266 9.264-34.148 10.682l.177-2.925c.023-.386.017-.772-.02-1.157-1.641-17.385-14.365-31.253-30.945-33.725-.067-.01-.135-.02-.203-.027l-60.192-7.306c-19.068-2.873-21.662-11.23-51.187-24.037 59.262-28.779 131.063-21.369 183.138 20.158zm67.855 40.486-83.066 57.143c-5.288 3.638-11.393 5.899-17.659 6.542l-121.092 12.426c-8.279.849-13.408-1.113-17.929-2.571l-60.828-19.552c-9.881-3.173-20.842-.87-28.604 6.017l-10.833 9.609-24.269-42.035c-2.071-3.588-6.66-4.814-10.245-2.745-3.587 2.071-4.816 6.658-2.745 10.245 4.161 7.207 23.181 40.15 31.646 54.812 1.791 3.104.724 7.086-2.379 8.878l-17.472 10.087c-3.117 1.798-7.084.729-8.878-2.379l-63.74-110.402c-1.791-3.103-.725-7.086 2.379-8.878l17.472-10.087c3.124-1.804 7.089-.721 8.878 2.379l14.526 25.16c2.072 3.587 6.659 4.815 10.245 2.745 3.587-2.071 4.816-6.658 2.745-10.245l-9.727-16.847 53.109-29.779c17.524-9.827 38.214-12.274 56.762-6.72 46.562 13.943 52.159 30.318 79.783 34.438.067.01.135.02.203.027l60.188 7.305c9.526 1.467 16.886 9.534 18.074 19.745l-.26 4.289-76.511 4.997c-4.134.271-7.266 3.84-6.996 7.974.26 3.967 3.558 7.011 7.477 7.011.165 0 .33-.005.497-.016 80.976-7.316 98.903-1.176 131.754-18.446 57.262-30.124 54.038-28.338 54.797-28.877 4.632-3.281 10.847-2.027 14.078 2.979 3.004 4.656 2.391 10.915-1.38 14.771z"/></g></svg>