<svg width="31" height="23" viewBox="0 0 31 23" fill="none" xmlns="http://www.w3.org/2000/svg">
<path d="M13.8537 15.3519C13.5197 13.5792 12.6847 12.29 11.1818 11.323C10.1799 10.8396 9.67892 10.6784 9.34493 10.6784C3.33328 9.22804 5.67115 4.39342 11.3488 1.81496C12.5178 1.3315 12.5178 -0.280045 11.0148 0.0422632C-1.17546 1.97611 -0.340508 12.4511 0.327454 17.1246C0.494444 17.6081 0.494443 18.0915 0.828423 18.4138C1.83037 21.4757 5.00318 23.4096 8.34299 22.9261C12.0168 22.1204 14.3546 18.8973 13.8537 15.3519Z" fill="#D7D7D7"/>
<path d="M30.1987 15.3519C29.8793 13.5792 29.0806 12.29 27.6431 11.323C26.6847 10.8396 26.2055 10.6784 25.886 10.6784C20.1357 9.22804 22.372 4.39342 27.8028 1.81496C28.9209 1.3315 28.9209 -0.280045 27.4833 0.0422632C15.823 1.97611 16.6217 12.4511 17.2606 17.1246C17.4203 17.6081 17.4203 18.0915 17.7398 18.4138C18.6982 21.4757 21.733 23.4096 24.9276 22.9261C28.4417 22.1204 30.6779 18.8973 30.1987 15.3519Z" fill="#D7D7D7"/>
</svg>
